<svg width="28" height="23" viewBox="0 0 28 23" fill="none" xmlns="http://www.w3.org/2000/svg">
<path d="M27.1797 12.4297C27.6719 11.9375 27.6719 11.1172 27.1797 10.5703L17.9922 1.38281C17.1172 0.5625 15.75 1.16406 15.75 2.3125V7.5625H8.3125C7.54688 7.5625 7 8.16406 7 8.875V14.125C7 14.8906 7.54688 15.4375 8.3125 15.4375H15.75V20.6875C15.75 21.8906 17.1719 22.4375 17.9922 21.6172L27.1797 12.4297ZM10.5 21.3438V19.1562C10.5 18.8281 10.1719 18.5 9.84375 18.5H5.25C4.26562 18.5 3.5 17.7344 3.5 16.75V6.25C3.5 5.32031 4.26562 4.5 5.25 4.5H9.84375C10.1719 4.5 10.5 4.22656 10.5 3.84375V1.65625C10.5 1.32812 10.1719 1 9.84375 1H5.25C2.35156 1 0 3.35156 0 6.25V16.75C0 19.6484 2.35156 22 5.25 22H9.84375C10.1719 22 10.5 21.7266 10.5 21.3438Z" fill="#BDBDBD"/>
</svg>
